<svg xmlns="http://www.w3.org/2000/svg" viewBox="0 0 1438 920" height="100%" style="background-color: #4c4c4c;" preserveAspectRatio="xMidYMid none">

  <path stroke="#000" transform="rotate(90 320.412 459.903)" id="svg_2" d="m-137.89706,383.07544l916.61728,0l0,153.65497l-916.61728,0l0,-153.65497z" opacity="undefined" stroke-width="0" fill="#7a7a7a" />
  <rect stroke="#edb009" transform="rotate(90 319.234 94.087)" fill="#ffffff" stroke-width="0" x="258.76454" y="82.40967" width="120.94029" height="23.35568" id="svg_73" />
  <rect stroke="#edb009" transform="rotate(90 320.663 274.087)" fill="#ffffff" stroke-width="0" x="260.19311" y="262.40968" width="120.94029" height="23.35568" id="svg_8" />
  <rect stroke="#edb009" transform="rotate(90 323.52 459.801)" fill="#ffffff" stroke-width="0" x="263.05025" y="448.12399" width="120.94029" height="23.35568" id="svg_9" />
  <rect stroke="#edb009" transform="rotate(90 323.52 654.087)" fill="#ffffff" stroke-width="0" x="263.05025" y="642.40971" width="120.94029" height="23.35568" id="svg_10" />
  <rect stroke="#edb009" transform="rotate(90 324.95 839.084)" fill="#ffffff" stroke-width="0" x="265.19462" y="827.40628" width="119.51169" height="23.35568" id="svg_11" />
  
  <path stroke="#000" transform="rotate(90 721.84 459.903)" id="svg_14" d="m263.53152,383.07541l916.61728,0l0,153.65506l-916.61728,0l0,-153.65506z" opacity="undefined" stroke-width="0" fill="#7a7a7a" />
  <rect stroke="#edb009" transform="rotate(90 720.663 94.087)" fill="#ffffff" stroke-width="0" x="660.19314" y="82.40967" width="120.94029" height="23.35568" id="svg_15" />
  <rect stroke="#edb009" transform="rotate(90 722.091 274.087)" fill="#ffffff" stroke-width="0" x="661.62172" y="262.40968" width="120.94029" height="23.35568" id="svg_16" />
  <rect stroke="#edb009" transform="rotate(90 724.948 459.801)" fill="#ffffff" stroke-width="0" x="664.47886" y="448.12399" width="120.94029" height="23.35568" id="svg_17" />
  <rect stroke="#edb009" transform="rotate(90 724.948 654.087)" fill="#ffffff" stroke-width="0" x="664.47886" y="642.40971" width="120.94029" height="23.35568" id="svg_18" />
  <rect stroke="#edb009" transform="rotate(90 726.379 839.084)" fill="#ffffff" stroke-width="0" x="666.62323" y="827.40628" width="119.51169" height="23.35568" id="svg_19" />
  
  <path stroke="#000" transform="rotate(90 1116.13 459.903)" id="svg_21" d="m657.81732,383.07541l916.61725,0l0,153.65506l-916.61725,0l0,-153.65506z" opacity="undefined" stroke-width="0" fill="#7a7a7a" />
  <rect stroke="#edb009" transform="rotate(90 1114.95 94.087)" fill="#ffffff" stroke-width="0" x="1054.47891" y="82.40967" width="120.94029" height="23.35568" id="svg_22" />
  <rect stroke="#edb009" transform="rotate(90 1116.38 274.087)" fill="#ffffff" stroke-width="0" x="1055.90748" y="262.40968" width="120.94029" height="23.35568" id="svg_23" />
  <rect stroke="#edb009" transform="rotate(90 1119.23 459.801)" fill="#ffffff" stroke-width="0" x="1058.76463" y="448.12399" width="120.94029" height="23.35568" id="svg_24" />
  <rect stroke="#edb009" transform="rotate(90 1119.23 654.087)" fill="#ffffff" stroke-width="0" x="1058.76463" y="642.40971" width="120.94029" height="23.35568" id="svg_25" />
  <rect stroke="#edb009" transform="rotate(90 1120.67 839.084)" fill="#ffffff" stroke-width="0" x="1060.90899" y="827.40628" width="119.51169" height="23.35568" id="svg_26" />
  
  <rect transform="rotate(90 118.754 93.0496)" stroke="#edb009" fill="none" stroke-width="2" x="65.03042" y="-3.75888" width="107.44682" height="193.61703" id="1" />
  <g transform="rotate(90 118.515 379.24)" stroke="null" id="svg_30">
    <rect stroke="#edb009" fill="none" stroke-width="2" x="64.79218" y="282.43166" width="107.44682" height="193.61703" id="2" />
    <path stroke="#000" fill="#ffffff" stroke-width="0" d="m109.70575,388.146l18.43555,0c2.65613,-0.00555 4.46912,-2.63293 4.45935,-5.33563l0,-1.81738c5.26221,-0.00485 9.07764,-4.64783 9.07581,-10.0621c0.00183,-5.51031 -3.73877,-10.03778 -8.09436,-10.03381l-28.41455,0l0,21.91373c0.00488,2.97598 2.18445,5.3299 4.53821,5.33521zm22.8949,-23.12701l0,0l0.98145,0c3.60364,-0.00662 4.76086,4.00024 4.74133,5.94196c0.00488,3.13495 -1.96936,6.14154 -5.72278,5.84973l0,-11.79166l0,-0.00003zm-37.58899,24.46173c0.00244,4.05051 2.62927,5.9285 4.74341,5.94016l38.1322,0c2.52112,-0.01166 4.7334,-2.34265 4.74316,-5.94016l-47.61877,0z" id="svg_29" />
  </g>
  
  <rect transform="rotate(90 120.183 240.192)" stroke="#edb009" fill="none" stroke-width="2" x="66.45899" y="143.38399" width="107.44682" height="193.61703" id="3" />
  <g transform="rotate(90 117.087 523.526)" stroke="null" id="svg_34">
    <rect stroke="#edb009" fill="none" stroke-width="2" x="63.36361" y="426.71738" width="107.44682" height="193.61703" id="4" />
    <path stroke="#000" fill="#ffffff" stroke-width="0" d="m108.27717,532.43182l18.43555,0c2.65612,-0.00555 4.46911,-2.63293 4.45934,-5.33557l0,-1.81738c5.26221,-0.00482 9.07764,-4.64783 9.07581,-10.06219c0.00183,-5.51038 -3.73877,-10.03784 -8.09436,-10.03387l-28.41454,0l0,21.91388c0.00488,2.97595 2.18445,5.32983 4.53821,5.33514zm22.89489,-23.12711l0,0l0.98145,0c3.60364,-0.00662 4.76086,4.00027 4.74133,5.94205c0.00488,3.13501 -1.96936,6.1416 -5.72278,5.84979l0,-11.79181l0,-0.00003zm-37.58898,24.46182c0.00244,4.05054 2.62927,5.92853 4.74341,5.94019l38.13219,0c2.52112,-0.01166 4.7334,-2.34265 4.74316,-5.94019l-47.61877,0z" id="svg_33" />
  </g>
  
  <g transform="rotate(90 117.087 679.241)" stroke="null" id="svg_37">
    <rect stroke="#edb009" fill="none" stroke-width="2" x="63.36361" y="582.43169" width="107.44682" height="193.61703" id="5" />
    <path stroke="#000" fill="#ffffff" stroke-width="0" d="m108.27717,688.14618l18.43555,0c2.65612,-0.00555 4.46911,-2.63293 4.45934,-5.33563l0,-1.81738c5.26221,-0.00488 9.07764,-4.64783 9.07581,-10.06213c0.00183,-5.51025 -3.73877,-10.03778 -8.09436,-10.03375l-28.41454,0l0,21.9137c0.00488,2.97595 2.18445,5.3299 4.53821,5.33521zm22.89489,-23.12701l0,0l0.98145,0c3.60364,-0.00659 4.76086,4.00024 4.74133,5.94196c0.00488,3.13495 -1.96936,6.14154 -5.72278,5.84973l0,-11.79163l0,-0.00006zm-37.58898,24.46173c0.00244,4.05054 2.62927,5.92847 4.74341,5.94019l38.13219,0c2.52112,-0.01172 4.7334,-2.34271 4.74316,-5.94019l-47.61877,0z" id="svg_36" />
  </g>
  
  <rect transform="rotate(90 117.325 824.478)" stroke="#edb009" fill="none" stroke-width="2" x="63.60185" y="727.66979" width="107.44682" height="193.61703" id="6" />
  <rect transform="rotate(90 521.611 83.0496)" stroke="#edb009" fill="none" stroke-width="2" x="467.8876" y="-13.75888" width="107.44682" height="193.61703" id="7" />
  <rect transform="rotate(90 521.372 369.241)" stroke="#edb009" fill="none" stroke-width="2" x="467.64908" y="272.43249" width="107.44682" height="193.61703" id="8" />
  <rect transform="rotate(90 523.04 230.192)" stroke="#edb009" fill="none" stroke-width="2" x="469.31618" y="133.38398" width="107.44682" height="193.61703" id="9" />
  <rect transform="rotate(90 519.944 513.526)" stroke="#edb009" fill="none" stroke-width="2" x="466.2203" y="416.71701" width="107.44682" height="193.61703" id="10" />
  <rect transform="rotate(90 519.944 669.241)" stroke="#edb009" fill="none" stroke-width="2" x="466.22097" y="572.43199" width="107.44682" height="193.61703" id="11" />
  <rect transform="rotate(90 520.182 825.906)" stroke="#edb009" fill="none" stroke-width="2" x="466.45903" y="729.09836" width="107.44682" height="193.61703" id="12" />
  
  <g transform="rotate(90 917.311 106.635)" stroke="null" id="svg_4">
    <rect stroke="#edb009" fill="none" stroke-width="2" x="863.58787" y="9.82655" width="107.44682" height="193.61703" id="13" />
    <path stroke="#000" fill="#ffffff" stroke-width="0" d="m891.42432,105.21439l0,0c0,-13.8056 11.45953,-24.99902 25.59528,-24.99902l0,0c6.78833,0 13.29858,2.63397 18.09851,7.32257c4.80005,4.6886 7.4967,11.0473 7.4967,17.67645l0,0c0,13.8075 -11.45935,25.00098 -25.59521,25.00098l0,0c-14.13574,0 -25.59528,-11.19348 -25.59528,-25.00098l0,0zm41.33051,11.18378l0,0c5.63525,-7.56354 4.79749,-18.00775 -1.97504,-24.6228c-6.7724,-6.61506 -17.46588,-7.4328 -25.21008,-1.92902l27.18512,26.55182l0,0zm-31.47034,-22.36567c-5.63525,7.56355 -4.79767,18.00776 1.97473,24.62281c6.7724,6.61382 17.46582,7.43286 25.21008,1.92773l-27.18481,-26.55054l0,0z" id="svg_116" />
  </g>
  
  <g transform="rotate(90 918.74 282.349)" stroke="null" id="svg_55">
    <rect stroke="#edb009" fill="none" stroke-width="2" x="865.01644" y="185.54085" width="107.44682" height="193.61703" id="14" />
    <path stroke="#000" fill="#ffffff" stroke-width="0" d="m892.85284,280.92856l0,0c0,-13.80557 11.45953,-24.9989 25.59528,-24.9989l0,0c6.78833,0 13.29858,2.63394 18.09851,7.32251c4.80005,4.68854 7.4967,11.04724 7.4967,17.67639l0,0c0,13.8075 -11.45935,25.00101 -25.59521,25.00101l0,0c-14.13574,0 -25.59528,-11.19351 -25.59528,-25.00101l0,0zm41.33051,11.18378l0,0c5.63525,-7.56354 4.79749,-18.00775 -1.97504,-24.6228c-6.7724,-6.61496 -17.46588,-7.43271 -25.21008,-1.92899l27.18512,26.55179l0,0zm-31.47034,-22.36566c-5.63525,7.56354 -4.79767,18.00778 1.97473,24.6228c6.7724,6.61383 17.46582,7.43286 25.21008,1.92773l-27.18481,-26.55054l0,0z" id="svg_54" />
  </g>
  
  <g transform="rotate(90 918.74 456.635)" stroke="null" id="svg_58">
    <rect stroke="#edb009" fill="none" stroke-width="2" x="865.01644" y="359.82657" width="107.44682" height="193.61703" id="15" />
    <path stroke="#000" fill="#ffffff" stroke-width="0" d="m892.85291,455.21429l0,0c0,-13.8056 11.45953,-24.99902 25.59528,-24.99902l0,0c6.78833,0 13.29858,2.63397 18.09851,7.32257c4.80005,4.6886 7.4967,11.04727 7.4967,17.67645l0,0c0,13.80746 -11.45935,25.00098 -25.59521,25.00098l0,0c-14.13574,0 -25.59528,-11.19351 -25.59528,-25.00098l0,0zm41.33051,11.18378l0,0c5.63525,-7.56354 4.79749,-18.00778 -1.97504,-24.62283c-6.7724,-6.61505 -17.46588,-7.4328 -25.21008,-1.92899l27.18512,26.55182l0,0zm-31.47034,-22.36569c-5.63525,7.56357 -4.79767,18.00778 1.97473,24.6228c6.7724,6.61386 17.46582,7.43289 25.21008,1.92776l-27.18481,-26.55057l0,0z" id="svg_57" />
  </g>
  
  <g transform="rotate(90 917.311 636.635)" stroke="null" id="svg_61">
    <rect stroke="#edb009" fill="none" stroke-width="2" x="863.58787" y="539.82659" width="107.44682" height="193.61703" id="16" />
    <path stroke="#000" fill="#ffffff" stroke-width="0" d="m891.42432,635.2146l0,0c0,-13.8056 11.45953,-24.99902 25.59528,-24.99902l0,0c6.78833,0 13.29858,2.63397 18.09851,7.32257c4.80005,4.6886 7.4967,11.0473 7.4967,17.67645l0,0c0,13.8075 -11.45935,25.00098 -25.59521,25.00098l0,0c-14.13574,0 -25.59528,-11.19348 -25.59528,-25.00098l0,0zm41.33051,11.18378l0,0c5.63525,-7.56354 4.79749,-18.00775 -1.97504,-24.6228c-6.7724,-6.61505 -17.46588,-7.4328 -25.21008,-1.92902l27.18512,26.55182l0,0zm-31.47034,-22.36566c-5.63525,7.56354 -4.79767,18.00775 1.97473,24.6228c6.7724,6.61383 17.46582,7.43286 25.21008,1.92773l-27.18481,-26.55054l0,0z" id="svg_60" />
  </g>
  
  <g transform="rotate(90 917.311 816.635)" stroke="null" id="svg_64">
    <rect stroke="#edb009" fill="none" stroke-width="2" x="863.58787" y="719.82664" width="107.44682" height="193.61703" id="17" />
    <path stroke="#000" fill="#ffffff" stroke-width="0" d="m891.42432,815.2146l0,0c0,-13.8056 11.45953,-24.99902 25.59528,-24.99902l0,0c6.78833,0 13.29858,2.63397 18.09851,7.32257c4.80005,4.6886 7.4967,11.0473 7.4967,17.67645l0,0c0,13.8075 -11.45935,25.00098 -25.59521,25.00098l0,0c-14.13574,0 -25.59528,-11.19348 -25.59528,-25.00098l0,0zm41.33051,11.18378l0,0c5.63525,-7.56354 4.79749,-18.00775 -1.97504,-24.6228c-6.7724,-6.61505 -17.46588,-7.4328 -25.21008,-1.92902l27.18512,26.55182l0,0zm-31.47034,-22.36566c-5.63525,7.56354 -4.79767,18.00775 1.97473,24.6228c6.7724,6.61383 17.46582,7.43286 25.21008,1.92773l-27.18481,-26.55054l0,0z" id="svg_63" />
  </g>
  
  <g transform="rotate(90 1312.7 70.1644)" stroke="null" id="svg_3">
    <rect stroke="#edb009" fill="none" stroke-width="2" x="1258.98008" y="-26.64406" width="107.44682" height="193.61703" id="18" />
    <path stroke="#000" fill="#ffffff" stroke-width="0" d="m1334.49231,71.92787l-9.27795,-2.53412l7.47375,-12.91718c0.66895,-1.14838 -0.14539,-2.45544 -1.83105,-2.91486c-1.68787,-0.45941 -3.57751,0.09882 -4.24646,1.25806l-7.47266,12.91669l-11.63269,-3.1651l7.47229,-12.9173c0.66919,-1.15692 -0.14526,-2.46503 -1.83301,-2.92334c-1.68616,-0.45941 -3.60547,0.1095 -4.24451,1.25806l-7.47559,12.92535l-9.27527,-2.52533l-3.85498,6.64765l5.13232,1.39832l-6.04773,10.44971c-1.4541,2.51617 0.33435,5.37115 4.0155,6.36975l3.86572,1.05768l-2.08008,3.61359c-0.97217,1.66736 0.21729,3.57281 2.66296,4.24219l2.20996,0.59918c2.44165,0.6684 5.23438,-0.14929 6.19324,-1.82684l2.0946,-3.61328l4.41956,1.20734c3.66431,0.9986 7.82349,-0.22858 9.27856,-2.75458l6.04834,-10.45117l4.56482,1.2478l3.84033,-6.64825z" id="svg_107" />
  </g>
  
  <g transform="rotate(90 1312.7 195.879)" stroke="null" id="svg_68">
    <rect stroke="#edb009" fill="none" stroke-width="2" x="1258.98008" y="99.07024" width="107.44682" height="193.61703" id="19" />
    <path stroke="#000" fill="#ffffff" stroke-width="0" d="m1334.49231,197.64217l-9.27795,-2.53412l7.47375,-12.91718c0.66895,-1.14838 -0.14539,-2.45544 -1.83105,-2.91486c-1.68787,-0.45941 -3.57751,0.09882 -4.24646,1.25806l-7.47266,12.91669l-11.63269,-3.1651l7.47229,-12.9173c0.66919,-1.15692 -0.14526,-2.46503 -1.83301,-2.92334c-1.68616,-0.45941 -3.60547,0.1095 -4.24451,1.25806l-7.47559,12.92535l-9.27527,-2.52533l-3.85498,6.64764l5.13232,1.39833l-6.04773,10.44969c-1.4541,2.51617 0.33435,5.37115 4.0155,6.36975l3.86572,1.05768l-2.08008,3.61359c-0.97217,1.66737 0.21729,3.57281 2.66296,4.2422l2.20996,0.59917c2.44165,0.6684 5.23438,-0.14928 6.19324,-1.82686l2.0946,-3.61327l4.41956,1.20734c3.66431,0.99861 7.82349,-0.22858 9.27856,-2.75458l6.04834,-10.45117l4.56482,1.2478l3.84033,-6.64825z" id="svg_67" />
  </g>
  
  <g transform="rotate(90 1311.28 323.022)" stroke="null" id="svg_71">
    <rect stroke="#edb009" fill="none" stroke-width="2" x="1257.55151" y="226.2131" width="107.44682" height="193.61703" id="20" />
    <path stroke="#000" fill="#ffffff" stroke-width="0" d="m1333.06372,324.78503l-9.27795,-2.53415l7.47375,-12.91714c0.66895,-1.14841 -0.14539,-2.45547 -1.83105,-2.91486c-1.68787,-0.45941 -3.57751,0.09882 -4.24646,1.25806l-7.47266,12.91666l-11.63269,-3.1651l7.47229,-12.9173c0.66919,-1.15692 -0.14526,-2.46503 -1.83301,-2.92331c-1.68616,-0.45941 -3.60547,0.1095 -4.24451,1.25803l-7.47559,12.92535l-9.27527,-2.52533l-3.85498,6.64764l5.13232,1.39832l-6.04773,10.44971c-1.4541,2.51617 0.33435,5.37115 4.0155,6.36975l3.86572,1.05768l-2.08008,3.61362c-0.97217,1.66733 0.21729,3.57281 2.66296,4.24219l2.20996,0.59918c2.44165,0.66837 5.23438,-0.14929 6.19324,-1.82687l2.0946,-3.61328l4.41956,1.20737c3.66431,0.99863 7.82349,-0.22861 9.27856,-2.75461l6.04834,-10.45117l4.56482,1.24783l3.84033,-6.64825z" id="svg_70" />
  </g>
  
  <g transform="rotate(90 1311.28 453.022)" stroke="null" id="svg_75">
    <rect stroke="#edb009" fill="none" stroke-width="2" x="1257.55151" y="356.21311" width="107.44682" height="193.61703" id="21" />
    <path stroke="#000" fill="#ffffff" stroke-width="0" d="m1333.06372,454.78503l-9.27795,-2.53412l7.47375,-12.91718c0.66895,-1.14838 -0.14539,-2.45544 -1.83105,-2.91486c-1.68787,-0.45941 -3.57751,0.09882 -4.24646,1.25806l-7.47266,12.91669l-11.63269,-3.16513l7.47229,-12.91727c0.66919,-1.15692 -0.14526,-2.46503 -1.83301,-2.92334c-1.68616,-0.45944 -3.60547,0.1095 -4.24451,1.25806l-7.47559,12.92535l-9.27527,-2.52533l-3.85498,6.64764l5.13232,1.39832l-6.04773,10.44971c-1.4541,2.51617 0.33435,5.37115 4.0155,6.36975l3.86572,1.05768l-2.08008,3.61359c-0.97217,1.66736 0.21729,3.57281 2.66296,4.24219l2.20996,0.59918c2.44165,0.6684 5.23438,-0.14929 6.19324,-1.82684l2.0946,-3.61328l4.41956,1.20734c3.66431,0.9986 7.82349,-0.22861 9.27856,-2.75458l6.04834,-10.45117l4.56482,1.2478l3.84033,-6.64825z" id="svg_74" />
  </g>
  
  <rect transform="rotate(90 1313.04 584.478)" stroke="#edb009" fill="none" stroke-width="2" x="1259.31624" y="487.66977" width="107.44682" height="193.61703" id="22" />
  <rect transform="rotate(90 1315.66 844.955)" stroke="#edb009" fill="none" stroke-width="2" x="1261.93487" y="748.14684" width="107.44682" height="193.61703" id="23" />
  <rect transform="rotate(90 1314.47 715.906)" stroke="#edb009" fill="none" stroke-width="2" x="1260.74482" y="619.09834" width="107.44682" height="193.61703" id="24" />
</svg>