<svg xmlns="http://www.w3.org/2000/svg" viewBox="0 0 1438 920" height="100%" style="background-color: #4c4c4c;" preserveAspectRatio="xMidYMid none">

  <path id="svg_54" d="m2.24997,338.75l1433.75003,0l0,240l-1433.75003,0l0,-240z" opacity="undefined" stroke-width="2" stroke="#228b22" fill="#228b22"/>
  <rect fill="#7a7a7a" x="0.08613" y="1.53115" width="1438.29797" height="116.00811" id="svg_2" stroke-width="0" stroke="#000" />
  <rect fill="#ffffff" stroke="#edb009" stroke-width="0" x="51.42859" y="49.22619" width="108.33334" height="15.47619" id="svg_69" />
  <rect fill="#ffffff" stroke="#edb009" stroke-width="0" x="185.95241" y="50.41666" width="108.33334" height="15.47619" id="svg_70" />
  <rect fill="#ffffff" stroke="#edb009" stroke-width="0" x="316.90478" y="50.41666" width="108.33334" height="15.47619" id="svg_72" />
  <rect fill="#ffffff" stroke="#edb009" stroke-width="0" x="451.4286" y="51.60714" width="108.33334" height="15.47619" id="svg_73" />
  <rect fill="#ffffff" stroke="#edb009" stroke-width="0" x="583.57147" y="51.60714" width="108.33334" height="15.47619" id="svg_76" />
  <rect fill="#ffffff" stroke="#edb009" stroke-width="0" x="718.09529" y="52.79762" width="108.33334" height="15.47619" id="svg_77" />
  <rect fill="#ffffff" stroke="#edb009" stroke-width="0" x="849.04767" y="52.79762" width="108.33334" height="15.47619" id="svg_79" />
  <rect fill="#ffffff" stroke="#edb009" stroke-width="0" x="983.57149" y="53.98809" width="108.33334" height="15.47619" id="svg_80" />
  <rect fill="#ffffff" stroke="#edb009" stroke-width="0" x="1119.28577" y="53.98809" width="108.33334" height="15.47619" id="svg_83" />
  <rect fill="#ffffff" stroke="#edb009" stroke-width="0" x="1253.80958" y="55.17857" width="108.33334" height="15.47619" id="svg_84" />
  <rect fill="none" stroke-width="2" x="592.58994" y="129.99115" width="107.44682" height="193.61703" id="1" stroke="#edb009" />

  <path fill="#ffffff" stroke-width="0" d="m619.29547,227.75995l0,0c0,-13.8056 11.45947,-24.99902 25.59521,-24.99902l0,0c6.78833,0 13.29858,2.63397 18.09851,7.32257c4.80011,4.6886 7.49677,11.0473 7.49677,17.67645l0,0c0,13.8075 -11.45935,25.00098 -25.59521,25.00098l0,0c-14.1358,0 -25.59528,-11.19348 -25.59528,-25.00098l0,0l0,0zm41.33044,11.18378l0,0c5.63525,-7.56354 4.79755,-18.00775 -1.97491,-24.6228c-6.77252,-6.61505 -17.46594,-7.4328 -25.21008,-1.92902l27.185,26.55182l0,0zm-31.47028,-22.36566c-5.63538,7.56354 -4.79761,18.00775 1.97473,24.6228c6.7724,6.6138 17.46582,7.43283 25.21008,1.92773l-27.18481,-26.55054l0,0z" id="svg_115" stroke="#000" />
  <rect fill="#7a7a7a" x="-1.16387" y="802.78115" width="1438.29797" height="116.00811" id="svg_6" stroke-width="0" stroke="#000" />
  <rect fill="#ffffff" stroke="#edb009" stroke-width="0" x="50.17859" y="850.47619" width="108.33334" height="15.47619" id="svg_7" />
  <rect fill="#ffffff" stroke="#edb009" stroke-width="0" x="184.70241" y="851.66666" width="108.33334" height="15.47619" id="svg_8" />
  <rect fill="#ffffff" stroke="#edb009" stroke-width="0" x="315.65478" y="851.66666" width="108.33334" height="15.47619" id="svg_9" />
  <rect fill="#ffffff" stroke="#edb009" stroke-width="0" x="450.1786" y="852.85714" width="108.33334" height="15.47619" id="svg_10" />
  <rect fill="#ffffff" stroke="#edb009" stroke-width="0" x="582.32147" y="852.85714" width="108.33334" height="15.47619" id="svg_11" />
  <rect fill="#ffffff" stroke="#edb009" stroke-width="0" x="716.84529" y="854.04762" width="108.33334" height="15.47619" id="svg_12" />
  <rect fill="#ffffff" stroke="#edb009" stroke-width="0" x="847.79767" y="854.04762" width="108.33334" height="15.47619" id="svg_13" />
  <rect fill="#ffffff" stroke="#edb009" stroke-width="0" x="982.32149" y="855.23809" width="108.33334" height="15.47619" id="svg_14" />
  <rect fill="#ffffff" stroke="#edb009" stroke-width="0" x="1118.03577" y="855.23809" width="108.33334" height="15.47619" id="svg_15" />
  <rect fill="#ffffff" stroke="#edb009" stroke-width="0" x="1252.55958" y="856.42857" width="108.33334" height="15.47619" id="svg_16" />
  <rect fill="none" stroke-width="2" x="39.43525" y="595.11021" width="107.44682" height="193.61703" id="2" stroke="#edb009" />
  <rect fill="none" stroke-width="2" x="1144.07803" y="594.81258" width="107.44682" height="193.61703" id="3" stroke="#edb009" />

  <path fill="#ffffff" stroke-width="0" d="m1221.97131,691.00354l-9.27795,-2.53412l7.47363,-12.91718c0.66907,-1.14838 -0.14539,-2.45544 -1.83105,-2.91486c-1.68774,-0.45941 -3.57739,0.09882 -4.24634,1.25806l-7.47266,12.91669l-11.63281,-3.16516l7.47241,-12.91724c0.66907,-1.15698 -0.14551,-2.46509 -1.83313,-2.92334c-1.68616,-0.45941 -3.60559,0.1095 -4.24451,1.25806l-7.47571,12.92529l-9.27502,-2.52527l-3.85498,6.64764l5.13208,1.39832l-6.04761,10.44965c-1.45398,2.51624 0.33447,5.37122 4.01538,6.36981l3.86597,1.05768l-2.08008,3.61359c-0.97217,1.6673 0.21704,3.57281 2.66296,4.24219l2.20984,0.59918c2.44165,0.6684 5.23438,-0.14935 6.19336,-1.82684l2.09448,-3.61328l4.41943,1.20734c3.66431,0.99854 7.82361,-0.22864 9.27881,-2.75458l6.04834,-10.45117l4.5647,1.24774l3.84045,-6.64819z" id="svg_114" stroke="#000" />
  <rect fill="none" stroke-width="2" x="587.82802" y="596.71735" width="107.44682" height="193.61703" id="4" stroke="#edb009" />
  
  <path fill="#ffffff" stroke="#000" stroke-width="0" d="m632.74158,702.43176l18.43555,0c2.65613,-0.00555 4.46912,-2.63293 4.45935,-5.33563l0,-1.81738c5.26221,-0.00488 9.07764,-4.64789 9.07581,-10.06213c0.00183,-5.51025 -3.73877,-10.03778 -8.09436,-10.03375l-28.41455,0l0,21.9137c0.00488,2.97595 2.18445,5.3299 4.53821,5.33521zm22.8949,-23.12701l0,0l0.98145,0c3.60364,-0.00659 4.76086,4.00024 4.74133,5.94196c0.00488,3.13495 -1.96936,6.14154 -5.72278,5.84973l0,-11.79163l0,-0.00006zm-37.58899,24.46173c0.00244,4.05048 2.62927,5.92847 4.74341,5.94012l38.1322,0c2.52112,-0.01166 4.7334,-2.34265 4.74316,-5.94012l-47.61877,0z" id="svg_120" />
  <rect fill="none" stroke-width="2" x="178.18525" y="597.61021" width="107.44682" height="193.61703" id="5" stroke="#edb009" />
  <rect fill="none" stroke-width="2" x="313.18525" y="596.36021" width="107.44682" height="193.61703" id="6" stroke="#edb009" />
  <rect fill="none" stroke-width="2" x="455.68525" y="596.36021" width="107.44682" height="193.61703" id="7" stroke="#edb009" />
  <rect fill="none" stroke-width="2" x="866.93525" y="596.36021" width="107.44682" height="193.61703" id="8" stroke="#edb009" />
  <rect fill="none" stroke-width="2" x="1009.43525" y="595.11021" width="107.44682" height="193.61703" id="9" stroke="#edb009" />
  <rect fill="none" stroke-width="2" x="726.57802" y="595.46735" width="107.44682" height="193.61703" id="10" stroke="#edb009" />
  
  <path fill="#ffffff" stroke="#000" stroke-width="0" d="m771.49158,701.18176l18.43555,0c2.65613,-0.00555 4.46912,-2.63293 4.45935,-5.33563l0,-1.81738c5.26221,-0.00488 9.07764,-4.64789 9.07581,-10.06213c0.00183,-5.51025 -3.73877,-10.03778 -8.09436,-10.03375l-28.41455,0l0,21.9137c0.00488,2.97595 2.18445,5.3299 4.53821,5.33521zm22.8949,-23.12701l0,0l0.98145,0c3.60364,-0.00659 4.76086,4.00024 4.74133,5.94196c0.00488,3.13495 -1.96936,6.14154 -5.72278,5.84973l0,-11.79163l0,-0.00006zm-37.58899,24.46173c0.00244,4.05048 2.62927,5.92847 4.74341,5.94012l38.1322,0c2.52112,-0.01166 4.7334,-2.34265 4.74316,-5.94012l-47.61877,0z" id="svg_26" />
  <rect fill="none" stroke-width="2" x="1284.07803" y="592.31258" width="107.44682" height="193.61703" id="11" stroke="#edb009" />
  
  <path fill="#ffffff" stroke-width="0" d="m1361.97131,688.50354l-9.27795,-2.53412l7.47363,-12.91718c0.66907,-1.14838 -0.14539,-2.45544 -1.83105,-2.91486c-1.68774,-0.45941 -3.57739,0.09882 -4.24634,1.25806l-7.47266,12.91669l-11.63281,-3.16516l7.47241,-12.91724c0.66907,-1.15698 -0.14551,-2.46509 -1.83313,-2.92334c-1.68616,-0.45941 -3.60559,0.1095 -4.24451,1.25806l-7.47571,12.92529l-9.27502,-2.52527l-3.85498,6.64764l5.13208,1.39832l-6.04761,10.44965c-1.45398,2.51624 0.33447,5.37122 4.01538,6.36981l3.86597,1.05768l-2.08008,3.61359c-0.97217,1.6673 0.21704,3.57281 2.66296,4.24219l2.20984,0.59918c2.44165,0.6684 5.23438,-0.14935 6.19336,-1.82684l2.09448,-3.61328l4.41943,1.20734c3.66431,0.99854 7.82361,-0.22864 9.27881,-2.75458l6.04834,-10.45117l4.5647,1.24774l3.84045,-6.64819z" id="svg_29" stroke="#000" />
  <rect fill="none" stroke-width="2" x="1145.32803" y="131.06258" width="107.44682" height="193.61703" id="12" stroke="#edb009" />
  
  <path fill="#ffffff" stroke-width="0" d="m1223.22131,227.25354l-9.27795,-2.53412l7.47363,-12.91718c0.66907,-1.14838 -0.14539,-2.45544 -1.83105,-2.91486c-1.68774,-0.45941 -3.57739,0.09882 -4.24634,1.25806l-7.47266,12.91669l-11.63281,-3.16516l7.47241,-12.91724c0.66907,-1.15698 -0.14551,-2.46509 -1.83313,-2.92334c-1.68616,-0.45941 -3.60559,0.1095 -4.24451,1.25806l-7.47571,12.92529l-9.27502,-2.52527l-3.85498,6.64764l5.13208,1.39832l-6.04761,10.44965c-1.45398,2.51624 0.33447,5.37122 4.01538,6.36981l3.86597,1.05768l-2.08008,3.61359c-0.97217,1.6673 0.21704,3.57281 2.66296,4.24219l2.20984,0.59918c2.44165,0.6684 5.23438,-0.14935 6.19336,-1.82684l2.09448,-3.61328l4.41943,1.20734c3.66431,0.99854 7.82361,-0.22864 9.27881,-2.75458l6.04834,-10.45117l4.5647,1.24774l3.84045,-6.64819z" id="svg_34" stroke="#000" />
  <rect fill="none" stroke-width="2" x="35.32802" y="129.21735" width="107.44682" height="193.61703" id="13" stroke="#edb009" />
  
  <path fill="#ffffff" stroke="#000" stroke-width="0" d="m80.24158,234.93176l18.43555,0c2.65613,-0.00555 4.46912,-2.63293 4.45935,-5.33563l0,-1.81738c5.26221,-0.00488 9.07764,-4.64789 9.07581,-10.06213c0.00183,-5.51025 -3.73877,-10.03778 -8.09436,-10.03375l-28.41455,0l0,21.9137c0.00488,2.97595 2.18445,5.3299 4.53821,5.33521zm22.8949,-23.12701l0,0l0.98145,0c3.60364,-0.00659 4.76086,4.00024 4.74133,5.94196c0.00488,3.13495 -1.96936,6.14154 -5.72278,5.84973l0,-11.79163l0,-0.00006zm-37.58899,24.46173c0.00244,4.05048 2.62927,5.92847 4.74341,5.94012l38.1322,0c2.52112,-0.01166 4.7334,-2.34265 4.74316,-5.94012l-47.61877,0z" id="svg_37" />
  <rect fill="none" stroke-width="2" x="314.43525" y="127.61021" width="107.44682" height="193.61703" id="14" stroke="#edb009" />
  <rect fill="none" stroke-width="2" x="456.93525" y="127.61021" width="107.44682" height="193.61703" id="15" stroke="#edb009" />
  <rect fill="none" stroke-width="2" x="866.93525" y="130.11021" width="107.44682" height="193.61703" id="16" stroke="#edb009" />
  <rect fill="none" stroke-width="2" x="1010.68525" y="128.86021" width="107.44682" height="193.61703" id="17" stroke="#edb009" />
  <rect fill="none" stroke-width="2" x="174.07802" y="127.96735" width="107.44682" height="193.61703" id="18" stroke="#edb009" />
  
  <path fill="#ffffff" stroke="#000" stroke-width="0" d="m218.99158,233.68176l18.43555,0c2.65613,-0.00555 4.46912,-2.63293 4.45935,-5.33563l0,-1.81738c5.26221,-0.00488 9.07764,-4.64789 9.07581,-10.06213c0.00183,-5.51025 -3.73877,-10.03778 -8.09436,-10.03375l-28.41455,0l0,21.9137c0.00488,2.97595 2.18445,5.3299 4.53821,5.33521zm22.8949,-23.12701l0,0l0.98145,0c3.60364,-0.00659 4.76086,4.00024 4.74133,5.94196c0.00488,3.13495 -1.96936,6.14154 -5.72278,5.84973l0,-11.79163l0,-0.00006zm-37.58899,24.46173c0.00244,4.05048 2.62927,5.92847 4.74341,5.94012l38.1322,0c2.52112,-0.01166 4.7334,-2.34265 4.74316,-5.94012l-47.61877,0z" id="svg_45" />
  <rect fill="none" stroke-width="2" x="1285.32803" y="128.56258" width="107.44682" height="193.61703" id="19" stroke="#edb009" />
  
  <path fill="#ffffff" stroke-width="0" d="m1363.22131,224.75354l-9.27795,-2.53412l7.47363,-12.91718c0.66907,-1.14838 -0.14539,-2.45544 -1.83105,-2.91486c-1.68774,-0.45941 -3.57739,0.09882 -4.24634,1.25806l-7.47266,12.91669l-11.63281,-3.16516l7.47241,-12.91724c0.66907,-1.15698 -0.14551,-2.46509 -1.83313,-2.92334c-1.68616,-0.45941 -3.60559,0.1095 -4.24451,1.25806l-7.47571,12.92529l-9.27502,-2.52527l-3.85498,6.64764l5.13208,1.39832l-6.04761,10.44965c-1.45398,2.51624 0.33447,5.37122 4.01538,6.36981l3.86597,1.05768l-2.08008,3.61359c-0.97217,1.6673 0.21704,3.57281 2.66296,4.24219l2.20984,0.59918c2.44165,0.6684 5.23438,-0.14935 6.19336,-1.82684l2.09448,-3.61328l4.41943,1.20734c3.66431,0.99854 7.82361,-0.22864 9.27881,-2.75458l6.04834,-10.45117l4.5647,1.24774l3.84045,-6.64819z" id="svg_48" stroke="#000" />
  <rect fill="none" stroke-width="2" x="726.33994" y="129.99115" width="107.44682" height="193.61703" id="20" stroke="#edb009" />
  
  <path fill="#ffffff" stroke-width="0" d="m753.04547,227.75995l0,0c0,-13.8056 11.45947,-24.99902 25.59521,-24.99902l0,0c6.78833,0 13.29858,2.63397 18.09851,7.32257c4.80011,4.6886 7.49677,11.0473 7.49677,17.67645l0,0c0,13.8075 -11.45935,25.00098 -25.59521,25.00098l0,0c-14.1358,0 -25.59528,-11.19348 -25.59528,-25.00098l0,0l0,0zm41.33044,11.18378l0,0c5.63525,-7.56354 4.79755,-18.00775 -1.97491,-24.6228c-6.77252,-6.61505 -17.46594,-7.4328 -25.21008,-1.92902l27.185,26.55182l0,0zm-31.47028,-22.36566c-5.63538,7.56354 -4.79761,18.00775 1.97473,24.6228c6.7724,6.6138 17.46582,7.43283 25.21008,1.92773l-27.18481,-26.55054l0,0z" id="svg_52" stroke="#000" />
</svg>
